<svg width="14" height="14" viewBox="0 0 14 14" fill="none" xmlns="http://www.w3.org/2000/svg">
<path d="M13.2281 0H0.771875C0.346875 0 0 0.346875 0 0.771875V13.225C0 13.6531 0.346875 14 0.771875 14H7V8.5H5.325V6.5H7V4.90625C7 3.09687 8.25312 2.1125 9.86875 2.1125C10.6406 2.1125 11.4719 2.17188 11.6656 2.19688V4.08437H10.3781C9.5 4.08437 9.33125 4.5 9.33125 5.1125V6.5H11.425L11.15 8.5H9.33125V14H13.225C13.6531 14 13.9969 13.6531 13.9969 13.2281V0.771875C14 0.346875 13.6531 0 13.2281 0Z" fill="white"/>
</svg>
