<svg width="16" height="14" viewBox="0 0 16 14" fill="none" xmlns="http://www.w3.org/2000/svg">
<path d="M16.0006 1.65888C15.4006 1.94325 14.7639 2.13284 14.1172 2.21669C14.8006 1.77919 15.3139 1.08284 15.5606 0.262524C14.9139 0.674504 14.2106 0.96617 13.4739 1.1193C12.8506 0.401066 11.9839 -0.00362141 11.0772 2.44225e-05C9.26391 2.44225e-05 7.79391 1.58232 7.79391 3.53284C7.79391 3.80263 7.82057 4.07607 7.87724 4.33857C5.24724 4.20367 2.79057 2.862 1.11057 0.645337C0.820573 1.18127 0.66724 1.79742 0.66724 2.42086C0.66724 3.64586 1.25057 4.72867 2.13391 5.36305C1.61057 5.34846 1.10057 5.19898 0.640573 4.9219V4.96565C0.640573 6.67919 1.77391 8.10471 3.27391 8.42919C2.99057 8.51305 2.70057 8.55315 2.41057 8.55315C2.20391 8.55315 1.99724 8.53127 1.79391 8.48752C2.21057 9.89117 3.42391 10.912 4.86391 10.9412C3.69724 11.9255 2.26057 12.4578 0.78724 12.4542C0.523906 12.4542 0.263906 12.436 0.00390625 12.4031C1.50391 13.4495 3.24724 14.0037 5.02724 14C11.0739 14 14.3739 8.61513 14.3739 3.94482C14.3739 3.79169 14.3706 3.63857 14.3639 3.48909C15.0039 2.98961 15.5572 2.36982 16.0006 1.65888Z" fill="white"/>
</svg>
